<svg xmlns="http://www.w3.org/2000/svg">
	<symbol id="triple-verge" viewBox="0 0 300 260">
		<path fill="currentColor" fill-rule="evenodd" clip-rule="evenodd" d="M150,202.8 L32.996536,0 L0,0 L150,260 L300,0 L267.003464,0 L150,202.8 L150,202.8 Z M262.673212,0 L37.326788,0 L53.86836,27.742612 L135.96998,27.742612 L135.969976,172.256404 L150.000004,196.272916 L164.549652,172.256404 L164.549656,27.742612 L246.13164,27.742612 L262.673212,0 L262.673212,0 Z"/>
	</symbol>

	<symbol id="facebook" viewBox="0 0 10 20">
		<path fill="currentColor" fill-rule="evenodd" clip-rule="evenodd" d="M7.5808603,3.5056253 L10,3.5056253 L10,0 L6.7108748,0 C2.0514258,0 2.161624,3.3702938 2.161624,3.8737268 L2.161624,6.6274506 L0,6.6274506 L0,9.994677 L2.161624,9.994677 L2.161624,20 L6.6016433,20 L6.6016433,9.994677 L9.5810536,9.994677 C9.5810536,9.994677 9.860029,8.3799024 9.9953601,6.6148197 L6.618463,6.6148197 L6.618463,4.312381 C6.6182697,3.9684588 7.102175,3.5056253 7.5808603,3.5056253 L7.5808603,3.5056253 L7.5808603,3.5056253 Z"/>
	</symbol>

	<symbol id="twitter" viewBox="0 0 23 16">
		<path fill="currentColor" fill-rule="evenodd" clip-rule="evenodd" d="M20.4109567,7.1133858 C21.7024847,7.0057182 22.5786195,6.4126308 22.9162145,5.6080753 C22.4498295,5.8972919 21.0033101,6.2123569 20.2045703,5.9117426 C20.1654697,5.7224593 20.121935,5.542335 20.079005,5.3799178 C19.4703262,3.1225626 17.3863064,1.3046295 15.2025197,1.5240353 C15.37948,1.4519855 15.5588589,1.3848205 15.73723,1.3247791 C15.9772752,1.2376681 17.3875157,1.0056435 17.1658114,0.5033306 C16.978169,0.0614662 15.2553256,0.8375274 14.9312344,0.9392926 C15.3593251,0.7768753 16.0677709,0.4970211 16.1433518,0 C15.4869058,0.090571 14.8431573,0.4042113 14.3457336,0.8599157 C14.5253141,0.6643231 14.6615614,0.4263961 14.6903829,0.1701514 C12.9397257,1.2989307 11.9176692,3.5750106 11.0907124,5.7829079 C10.4413206,5.1474861 9.8654942,4.6465979 9.3485203,4.368779 C7.8997839,3.5837624 6.1674677,2.7651633 3.4479629,1.7456798 C3.3645215,2.6542393 3.8927822,3.862599 5.4152857,4.6659333 C5.0853495,4.6213601 4.4827171,4.72109 3.9998049,4.8375094 C4.1967186,5.8785671 4.8380485,6.7360405 6.5760081,7.1506318 C5.7819038,7.2035497 5.3713479,7.3859129 4.9998926,7.7793371 C5.3608674,8.5032945 6.2436533,9.3552726 7.8306525,9.1802365 C6.0660884,9.94836 7.1115246,11.3714442 8.5475633,11.1589586 C6.097127,13.7142821 2.2340315,13.5266271 0.016183,11.3893549 C5.8075006,19.3581787 18.3964715,16.1018967 20.2720893,8.4263601 C21.6776941,8.4381648 22.5040462,7.9346307 23.016183,7.3796035 C22.206761,7.5182076 21.0331394,7.3751258 20.4109567,7.1133858 L20.4109567,7.1133858 L20.4109567,7.1133858 Z"/>
	</symbol>

	<symbol id="linkedin" viewBox="0 0 19 18">
		<path fill="currentColor" fill-rule="evenodd" clip-rule="evenodd" d="M0.1538194,5.8929419 L0.1538194,18 L4.2259433,18 L4.2259433,5.8929419 L0.1538194,5.8929419 L0.1538194,5.8929419 Z M2.3049538,0 C0.9118178,0 0,0.9034831 0,2.0913853 C0,3.2538861 0.884948,4.1845026 2.2512144,4.1845026 L2.2786682,4.1845026 C3.6986739,4.1845026 4.5824537,3.2538861 4.5824537,2.0913853 C4.555584,0.9034831 3.6986739,0 2.3049538,0 L2.3049538,0 L2.3049538,0 Z M14.3102621,5.5521392 C12.1470558,5.5521392 11.1803304,6.7290727 10.6394315,7.5526952 L10.6394315,7.5919519 L10.6131459,7.5919519 C10.6207395,7.5796361 10.6318378,7.5653959 10.6394315,7.5526952 L10.6394315,5.8367508 L6.5669181,5.8367508 C6.6212416,6.972888 6.5669181,17.9438089 6.5669181,17.9438089 L10.6396262,17.9438089 L10.6396262,11.1822147 C10.6396262,10.8196669 10.66708,10.4598131 10.7745588,10.2007954 C11.0695415,9.4770468 11.7391425,8.7286664 12.8645549,8.7286664 C14.3383001,8.7286664 14.927876,9.8394022 14.927876,11.4664414 L14.927876,17.9440014 L19,17.9440014 L19,11.0011332 C18.9998053,7.2823238 16.9908077,5.5521392 14.3102621,5.5521392 L14.3102621,5.5521392 L14.3102621,5.5521392 Z"/>
	</symbol>

	<symbol id="instagram" viewBox="0 0 18 18">
		<path fill="currentColor" fill-rule="evenodd" clip-rule="evenodd" d="M8.42536123,13.6642043 C5.89474473,13.4181367 3.57917793,10.7047061 4.60616973,7.6202636 C4.67070383,7.4252054 4.80819773,7.2123798 4.91332893,7.0071961 C5.01309823,6.8121378 5.18084853,6.5832643 5.13278313,6.4380692 L0.0405278319,6.4380692 L0.0405278319,14.8905305 C0.211533532,16.5440362 1.51466223,17.843342 3.20116533,18 L9.03967953,18 L14.8785768,18 C16.5681439,17.8263389 17.827803,16.423486 17.9951703,14.9344711 L17.9951703,6.4378781 L12.8590625,6.4378781 C14.8636401,9.7324715 12.5681804,14.067503 8.42536123,13.6642043 L8.42536123,13.6642043 L8.42536123,13.6642043 Z M8.99601853,12.6132586 C10.6091788,12.6132586 12.5716273,11.463351 12.5519033,9.065911 C12.5335197,6.8826339 10.7874614,5.3382156 8.55711023,5.6060625 C7.86715103,5.6885945 7.49641523,5.8374196 7.15210583,6.0439406 C6.36122843,6.5175444 5.61707583,7.4009425 5.48398633,8.5840922 C5.21512623,10.9717888 6.97095093,12.6132586 8.99601853,12.6132586 L8.99601853,12.6132586 L8.99601853,12.6132586 Z M6.58144853,8.0149653 C6.86964963,7.3359868 7.51958623,6.5746673 8.86426943,6.4818188 C10.5161119,6.367382 12.0542058,7.8401579 11.5861902,9.7662867 C11.2922442,10.9746545 9.94794393,11.88862 8.55730173,11.6931796 C7.22774673,11.5067185 5.79918833,9.858371 6.58144853,8.0149653 L6.58144853,8.0149653 L6.58144853,8.0149653 Z M16.9857961,1.007005 C16.5016948,0.52404 15.7092854,0.0811947 14.8347242,0 L9.01382763,0 L8.99774203,0 L4.82677283,0 L4.82677283,4.5553079 L4.08051383,4.5553079 L4.08051383,0 L3.61977513,0 L3.61977513,4.5553079 L2.87294163,4.5553079 L2.87294163,0.0431765 C2.70768073,0.0746991 2.54586683,0.1178756 2.39018083,0.1715596 L2.39018083,4.5551169 L1.64392183,4.5551169 L1.64392183,0.5255684 C1.40646713,0.6719098 1.19658773,0.8369738 1.02577353,1.0071961 C0.0328680319,1.9979622 -0.0469857681,3.7007578 0.0162078319,5.8687512 L5.59160693,5.8687512 C5.81795493,5.8162135 6.08930443,5.537668 6.29401333,5.3869324 C7.04505973,4.8351907 8.01134733,4.5341018 8.99199713,4.5234032 L9.01976403,4.5234032 C10.0006053,4.5341018 10.9668929,4.8351907 11.7177478,5.3869324 C11.9228397,5.537668 12.1938062,5.8162135 12.4199627,5.8687512 L17.9953618,5.8687512 C18.0202562,3.6787875 17.9790846,1.9977711 16.9857961,1.007005 L16.9857961,1.007005 L16.9857961,1.007005 Z M16.2201961,3.961536 C16.2201961,4.2169649 16.0129977,4.4238681 15.7575423,4.4238681 L13.8289885,4.4238681 C13.5737247,4.4238681 13.3661433,4.2169649 13.3661433,3.961536 L13.3661433,2.0382729 C13.3661433,1.7832261 13.5735332,1.576514 13.8289885,1.576514 L15.7575423,1.576514 C16.0129977,1.576514 16.2201961,1.7832261 16.2201961,2.0382729 L16.2201961,3.961536 L16.2201961,3.961536 Z"/>
	</symbol>

	<symbol id="github" viewBox="0 0 20 17">
		<path fill="currentColor" fill-rule="evenodd" clip-rule="evenodd" d="M15.4117647,11.5694444 C15.4117647,12.3958333 14.9411765,13.9305556 13.8823529,13.9305556 C12.8235294,13.9305556 12.3529412,12.5138889 12.3529412,11.5694444 C12.3529412,10.7430556 12.8235294,9.2083333 13.8823529,9.2083333 C14.9411765,9.3263889 15.4117647,10.7430556 15.4117647,11.5694444 L15.4117647,11.5694444 L15.4117647,11.5694444 Z M6.1176471,9.3263889 C5.0588235,9.3263889 4.5882353,10.7430556 4.5882353,11.6875 C4.5882353,12.5138889 5.0588235,14.0486111 6.1176471,14.0486111 C7.1764706,14.0486111 7.6470588,12.6319444 7.6470588,11.6875 C7.6470588,10.7430556 7.2941176,9.3263889 6.1176471,9.3263889 L6.1176471,9.3263889 L6.1176471,9.3263889 Z M20,9.4444444 C20,10.7430556 19.8823529,12.1597222 19.2941176,13.4583333 C17.7647059,16.6458333 13.2941176,17 10.2352941,17 C7.0588235,17 2.4705882,16.7638889 0.8235294,13.4583333 C0.1176471,12.2777778 0,10.8611111 0,9.4444444 C0,7.6736111 0.4705882,6.0208333 1.6470588,4.7222222 C1.4117647,4.0138889 1.2941176,3.3055556 1.2941176,2.5972222 C1.2941176,1.6527778 1.5294118,0.8263889 1.8823529,0 C3.7647059,0 5.0588235,0.8263889 6.4705882,2.0069444 C7.6470588,1.7708333 8.9411765,1.5347222 10.2352941,1.5347222 C11.4117647,1.5347222 12.4705882,1.6527778 13.6470588,1.8888889 C15.0588235,0.7083333 16.2352941,0 18.1176471,0 C18.4705882,0.8263889 18.7058824,1.7708333 18.7058824,2.5972222 C18.7058824,3.3055556 18.5882353,4.0138889 18.3529412,4.6041667 C19.5294118,6.0208333 20,7.6736111 20,9.4444444 L20,9.4444444 L20,9.4444444 Z M17.2941176,11.5694444 C17.2941176,9.6805556 16.2352941,8.1458333 14.2352941,8.1458333 C13.4117647,8.1458333 12.7058824,8.2638889 11.8823529,8.3819444 C11.2941176,8.5 10.5882353,8.5 10,8.5 C9.4117647,8.5 8.7058824,8.5 8.1176471,8.3819444 C7.2941176,8.2638889 6.5882353,8.1458333 5.7647059,8.1458333 C3.7647059,8.1458333 2.7058824,9.7986111 2.7058824,11.5694444 C2.7058824,15.2291667 6.1176471,15.8194444 9.0588235,15.8194444 L11.0588235,15.8194444 C14,15.8194444 17.2941176,15.2291667 17.2941176,11.5694444 L17.2941176,11.5694444 L17.2941176,11.5694444 Z"/>
	</symbol>
</svg>
